<?xml version="1.0" encoding="utf-8"?>
<!-- Generator: Adobe Illustrator 27.5.0, SVG Export Plug-In . SVG Version: 6.00 Build 0)  -->
<svg version="1.1" xmlns="http://www.w3.org/2000/svg" xmlns:xlink="http://www.w3.org/1999/xlink" x="0px" y="0px"
	 viewBox="0 0 2400 1700" style="enable-background:new 0 0 2400 1700;" xml:space="preserve">
<g id="BACKGROUND">
	<linearGradient id="SVGID_1_" gradientUnits="userSpaceOnUse" x1="1200" y1="1700" x2="1200" y2="-9.094947e-13">
		<stop  offset="0" style="stop-color:#EBF9FD"/>
		<stop  offset="0.9555" style="stop-color:#AFE8F7"/>
	</linearGradient>
	<rect style="fill:url(#SVGID_1_);" width="2400" height="1700"/>
</g>
<g id="OBJECTS">
	
		<linearGradient id="SVGID_00000093146334506174394990000002130643005959942302_" gradientUnits="userSpaceOnUse" x1="1200" y1="777.292" x2="1200" y2="155.1524">
		<stop  offset="0.4948" style="stop-color:#4E717B"/>
		<stop  offset="0.6128" style="stop-color:#809DA5"/>
		<stop  offset="0.7367" style="stop-color:#AEC4CB"/>
		<stop  offset="0.8471" style="stop-color:#CFE1E6"/>
		<stop  offset="0.9387" style="stop-color:#E4F3F7"/>
		<stop  offset="1" style="stop-color:#EBF9FD"/>
	</linearGradient>
	<circle style="fill:url(#SVGID_00000093146334506174394990000002130643005959942302_);" cx="1200" cy="466.222" r="311.07"/>
	<g>
		
			<linearGradient id="SVGID_00000117637574355736660310000003882327610794771374_" gradientUnits="userSpaceOnUse" x1="1200" y1="1700" x2="1200" y2="521.3333">
			<stop  offset="0" style="stop-color:#C3EEF9"/>
			<stop  offset="0.4234" style="stop-color:#C1EDF9"/>
			<stop  offset="0.6288" style="stop-color:#B9EBF8"/>
			<stop  offset="0.7867" style="stop-color:#ACE7F7"/>
			<stop  offset="0.9136" style="stop-color:#9BE2F5"/>
		</linearGradient>
		<path style="fill:url(#SVGID_00000117637574355736660310000003882327610794771374_);" d="M2400,1700V755.068
			c-2.527-0.62-5.053-1.245-7.584-1.852c-54.615-13.109-108.624-28.029-164.104-38.558c-27.376-5.195-53.864-14.111-82.526-11.965
			c-25.074,1.877-49.94,2.286-74.629-3.164c-41.656-9.196-82.486-19.667-118.222-41.833c-16.062-9.963-34.445-17.099-53.967-20.605
			c-21.078-3.786-39.604-13.311-59.963-18.583c-11.044-2.86-22.08-2.065-32.409,1.454c-34.494,11.75-68.374,8.612-102.009-2.294
			c-17.507-5.676-36.036-7.464-53.915-11.544c-21.38-4.88-41.045-14.802-63.203-17.598c-14.593-1.841-29.345-2.742-44.032-4.01
			c-9.704-0.838-18.163-4.676-26.666-8.327c-13.412-5.758-26.679-11.667-41.893-13.248c-10.171-1.057-19.531,1.278-28.555,4.605
			c-8.646,3.187-17.259,3.68-26.522,3.086c-9.269-0.594-18.791-0.368-27.984,0.796c-14.209,1.8-28.309,1.394-42.426,0.231
			c-14.399-1.186-28.903-1.628-42.645,2.231c-20.624,5.792-38.593,1.094-55.988-8.134c-23.943-12.702-47.591-25.85-71.917-37.975
			c-17.386-8.665-34.708-7.492-50.344,4.211c-1.957,1.465-3.778,1.722-6.54,1.052c-22.55-5.47-45.503-9.353-68.789-11.392
			c-30.279-2.652-50.34,11.571-67.031,31.269c-15.809,18.658-30.986,37.778-51.006,53.443
			c-13.212,10.338-28.294,14.767-46.129,13.061c-11.373-1.088-22.883-1.294-34.341-1.468c-18.943-0.288-36.284-5.846-53.765-11.324
			c-16.851-5.281-34.166-5.559-51.681-2.33c-6.163,1.136-12.539,2.11-18.795,2.019c-17.433-0.254-31.944,5.41-43.811,15.947
			c-14.782,13.126-29.779,25.59-51.062,30.622c-8.047,1.902-15.527,5.758-20.945,11.289c-9.705,9.907-22.899,12.823-36.494,15.426
			c-22.316,4.273-43.963,11.879-67.32,10.967c-10.666-0.417-21.253-2.164-31.912-2.926c-17.636-1.261-33.843,2.456-48.267,11.483
			c-17.063,10.679-37.425,12.578-57.106,16.295c-31.624,5.973-61.641,16.633-92.8,23.921c-13.213,3.091-26.745,5.227-40.22,7.384
			c-19.906,3.187-38.458,9.564-55.023,19.338c-25.197,14.867-52.821,22.464-82.931,24.396
			c-36.139,2.319-69.267,13.371-101.52,26.865c-0.335,0.14-0.673,0.275-1.009,0.415V1700H2400z"/>
	</g>
	<g>
		
			<linearGradient id="SVGID_00000016772570798819516940000009672705247174701476_" gradientUnits="userSpaceOnUse" x1="1200" y1="1700" x2="1200" y2="734.7492">
			<stop  offset="0" style="stop-color:#A9D5E9"/>
			<stop  offset="0.2665" style="stop-color:#A5D3E8"/>
			<stop  offset="0.5303" style="stop-color:#99CDE5"/>
			<stop  offset="0.7922" style="stop-color:#85C4E0"/>
			<stop  offset="1" style="stop-color:#70B9DB"/>
		</linearGradient>
		<path style="fill:url(#SVGID_00000016772570798819516940000009672705247174701476_);" d="M2400,1700V734.749
			c-6.444,1.469-12.814,3.146-19.065,5.102c-58.223,18.216-117.946,27.539-179.866,27.808c-22.806,0.099-44.571,6.808-65.614,14.322
			c-26.63,9.509-53.874,16.857-82.499,20.265c-32.534,3.873-61.966,15.128-89.974,29.483c-19.197,9.839-39.258,16.91-61.83,18.975
			c-28.167,2.577-51.862,14.663-74.266,28.986c-41.639,26.619-30.303,22.1-78.977,17.144c-52.87-5.382-102.831,1.688-148.469,26.98
			c-22.009,12.198-45.645,21.366-71.183,26.717c-18.943,3.97-36.739,10.779-53.677,18.935c-11.538,5.556-20.422,4.717-30.153-3.148
			c-28.546-23.073-59.829-43.002-93.708-59.92c-30.826-15.394-63.335-23.585-99.103-19.54c-16.944,1.916-30.426-5.567-44.364-11.844
			c-28.054-12.633-56.464-24.375-88.156-28.565c-34.294-4.533-66.411,3.212-98.22,12.887c-24.676,7.505-48.613,16.593-72.436,25.865
			c-17.766,6.915-35.273,7.519-53.835,2.418c-36.707-10.086-74.788-16.155-110.31-29.84c-18.21-7.015-37.761-6.74-56.947-1.713
			c-10.898,2.855-21.975,4.157-33.336,3.586c-20.58-1.034-38.938,4.025-54.644,15.59c-6.657,4.902-13.298,6.451-21.891,4.19
			c-18.781-4.942-38.019-5.673-57.512-3.557c-12.528,1.36-24.855-0.987-37.071-3.046c-22.05-3.716-43.043-1.257-61.973,9.146
			c-29.832,16.394-63.572,21.981-96.93,29.904c-43.11,10.238-87.727,14.255-130.3,25.1c-31.495,8.023-61.549,11.865-93.974,6.843
			c-28.519-4.417-57.059,2.846-85.645,3.715c-18.392,0.56-36.22,3.603-54.072,6.661V1700H2400z"/>
	</g>
	<g>
		
			<linearGradient id="SVGID_00000078037821089480651960000003864296001230477448_" gradientUnits="userSpaceOnUse" x1="1200" y1="1700" x2="1200" y2="916.2961">
			<stop  offset="0.1073" style="stop-color:#7CB6D5"/>
			<stop  offset="0.4118" style="stop-color:#78B4D4"/>
			<stop  offset="0.7418" style="stop-color:#6BACD0"/>
			<stop  offset="1" style="stop-color:#5BA4CB"/>
		</linearGradient>
		<path style="fill:url(#SVGID_00000078037821089480651960000003864296001230477448_);" d="M2400,1700v-649.077
			c-6.945-1.778-13.89-3.56-20.815-5.396c-28.905-7.666-58.18-9.435-87.668-3.439c-31.501,6.405-62.083,4.439-92.686-4.426
			c-23.261-6.738-46.995-12.499-72.081-7.627c-11.97,2.325-23.048,6.572-33.391,12.053c-22.193,11.76-46.053,15.808-71.79,13.703
			c-10.367-0.848-20.935-0.678-31.344-0.079c-11.658,0.671-21.051-3.991-30.887-8.042c-3.768-1.552-7.523-3.128-11.263-4.729
			c-26.602-11.382-52.501-23.988-77.677-37.591c-12.571-6.792-24.963-13.833-37.181-21.093c-6.117-3.634-12.191-7.324-18.222-11.064
			c-5.633-3.494-11.493-6.575-16.361-10.77c-1.508-1.299-3.278-2.54-4.887-3.698c-2.314-1.665-4.749-2.72-7.226-4.308
			c-2.928-1.877-4.468-4.917-7.603-6.586c-4.413-2.35-8.581-5.326-12.518-8.522c-1.731-1.406-3.409-2.343-5.618-3.259
			c-1.719-0.713-3.68-1.17-5.333-1.981c-2.018-0.99-1.037-1.209-1.945-1.703c-1.696-0.922-4.867-1.251-6.758-1.687
			c-6.888-1.589-13.534-2.746-19.746-5.919c-1.609-0.822-3.29-1.547-4.893-2.366c-0.806-0.412-1.652-1.404-2.368-1.706
			c-1.255-0.529-3.487-0.167-4.868-0.462c-2.163-0.463-4.322-1.311-6.312-2.158c-2.098-0.893-3.697-1.713-5.972-1.763
			c-5.105-0.112-9.387,1.659-13.996,3.367c-1.442,0.534-2.926,0.798-4.345,1.337c-0.651,0.247-1.318,0.868-1.979,1.037
			c-0.575,0.147-1.441-0.057-1.935,0.094c-1.095,0.335-1.694,1.246-2.896,1.715c-1.831,0.714-3.233,1.532-4.997,2.34
			c-3.289,1.506-7.145,2.321-10.408,3.89c-4.007,1.927-7.46,6.12-10.487,8.974c-1.159,1.093-2.423,1.952-3.568,3.011
			c-2.681,2.481-4.77,5.491-7.453,7.977c-0.564,0.523-0.993,0.988-1.716,1.369c-0.315,0.166-1.258-0.021-1.612,0.198
			c-2.157,1.338-3.872,4.148-5.79,5.783c-4.39,3.744-9.241,6.962-13.595,10.729c-2.271,1.965-5.016,3.104-7.544,4.746
			c-2.996,1.947-5.782,3.939-8.127,6.505c-1.036,1.134-1.943,2.457-2.803,3.605c-0.172,0.23,0.027,0.624-0.119,0.861
			c-3.292,5.343-9.967,9.412-15.532,12.594c-16.537,9.455-35.896,14.134-55.589,14.852c-44.533,1.624-82.561,17.048-116.643,41.206
			c-13.651,9.676-28.189,18.345-43.846,25.595c-13.945,6.457-26.363,5.74-39.195-2.549c-23.74-15.334-43.869-34.083-65.883-51.038
			c-15.405-11.864-31.285-23.065-52.708-25.757c-14.957-1.879-28.055,2.131-40.119,9.339c-5.185,3.098-10.58,5.344-17.003,5.235
			c-55.28-0.931-101.333,17.932-141.482,49.562c-16.94,13.346-36.019,23.278-58.268,28.822
			c-19.726,4.915-36.112,15.325-51.962,26.315c-5.367,3.722-11.049,7.101-16.556,10.673c-10.642,6.902-21.961,7.805-34.77,4.717
			c-60.326-14.545-121.672-25.321-182.894-36.532c-49.696-9.101-94.053,2.374-135.164,26.423
			c-33.073,19.347-68.812,28.668-109.134,23.368c-17.681-2.324-35.561-0.22-52.949,3.495c-13.049,2.788-25.485,1.702-37.665-2.895
			c-36.441-13.753-73.454-26.49-106.052-46.846c-17.919-11.19-38.149-14.432-59.717-11.337c-6.375,0.915-10.28-0.271-12.801-5.833
			c-2.835-6.254-6.644-12.183-10.154-18.199c-11.343-19.444-28.192-33.532-52.916-39.132c-14.888-3.373-26.465-10.281-35.724-20.76
			c-14.674-16.609-33.026-28-54.49-34.889V1700H2400z"/>
	</g>
	<g>
		
			<linearGradient id="SVGID_00000024703677169503664940000002056454817971460484_" gradientUnits="userSpaceOnUse" x1="1200" y1="1700" x2="1200" y2="1186.2618">
			<stop  offset="0.1073" style="stop-color:#6092AC"/>
			<stop  offset="0.3361" style="stop-color:#5C8FAA"/>
			<stop  offset="0.5845" style="stop-color:#4F86A3"/>
			<stop  offset="0.8412" style="stop-color:#397897"/>
			<stop  offset="0.8508" style="stop-color:#387797"/>
		</linearGradient>
		<path style="fill:url(#SVGID_00000024703677169503664940000002056454817971460484_);" d="M2400,1700v-495.824
			c-13.168,6.283-26.343,12.555-39.606,18.683c-8.783,4.058-17.693,8.173-27.059,10.969c-29.194,8.714-55.849,21.407-82.166,35.327
			c-30.862,16.324-65.406,18.486-98.865,7.989c-54.455-17.084-106.384-39.372-157.952-62.29
			c-38.892-17.284-81.311-24.808-124.529-28.294c-20.856-1.682-40.296,3.905-58.454,12.806c-7.569,3.711-15.661,6.331-24.255,7.552
			c-12.944,1.84-24.953,5.783-36.304,11.431c-12.479,6.21-26.193,8.315-40.355,8.564c-13.182,0.232-26.134,1.689-38.697,5.203
			c-16.503,4.615-33.123,3.404-49.424-0.038c-25.899-5.469-53.096-3.903-78.504-9.696c-28.052-6.396-52.946-5.608-76.731,9.384
			c-6.475,4.081-14.486,5.254-22.392,6.065c-19.328,1.984-36.054,11.392-54.924,14.571c-11.786,1.986-23.344,4.12-33.054,10.806
			c-0.875,0.603-2.601,0.732-3.769,0.49c-19.561-4.055-40.001-3.016-59.457-7.757c-2.932-0.714-6.496-1.136-9.276-0.363
			c-11.093,3.086-20.547-0.634-29.639-5.048c-50.319-24.425-99.653-19.152-148.834,2.862c-13.464,6.026-27.729,10.697-41.538,16.155
			c-19.071,7.538-38.151,8.363-58.085,2.09c-32.222-10.14-65.421-14.267-99.708-10.27c-17.346,2.022-33.745-2.294-49.823-7.061
			c-32.272-9.568-64.675-10.802-98.569-6.566c-37.718,4.714-75.045-2.814-112.459-7.746c-39.477-5.204-73.955-22.67-112.058-30.826
			c-21.691-4.642-43.436-8.821-65.659-11.146c-31.679-3.315-58.648,6.874-84.38,21.189c-11.608,6.458-24.135,11.074-37.605,13.914
			c-16.761,3.534-32.384,9.664-46.986,17.528c-12.665,6.821-26.055,10.796-40.995,11.87c-14.012,1.008-27.34,5.156-40.211,9.934
			c-12.16,4.514-24.019,4.626-36.508,1.139c-22.511-6.286-45.224-12.022-67.81-18.11C73.162,1244.651,35.5,1248.32,0,1264.627V1700
			H2400z"/>
	</g>
	<g>
		<path style="fill:#14425B;" d="M2400,1700V852.628c-4.708,5.869-8.72,12.105-11.818,18.675
			c-22.85,48.453-53.269,92.665-90.467,134.004c-29.329,32.594-51.022,69.304-55.424,111.68
			c-2.951,28.407-15.223,51.977-41.196,70.453c-16.188,11.516-24.476,28.125-31.367,45.104
			c-6.878,16.946-11.683,35.041-25.113,49.127c-19.39,20.335-34.701,42.638-47.589,66.351c-1.29,2.373-2.646,2.78-5.47,2.202
			c-18.061-3.696-36.278-6.658-54.83-7.746c-43.075-2.525-81.572,5.722-111.521,35c-8.513,8.323-17.956,15.919-27.16,23.656
			c-6.418,5.395-15.129,7.968-23.405,10.734c-5.748,1.922-12.997,2.415-18.633,4.103c-3.551,1.064-7.777,2.514-11.104,3.878
			c-3.037,1.245-2.221,1.624-4.678,3.323c-4.814,3.329-12.882,7.305-12.905,13.366c-9.193,2.059-17.461,7.723-26.832,7.883
			c-13.139,0.224-25.73,1.763-38.697,3.41c-1.889,0.24-4.518-0.107-6.278,0.316c-1.872,0.451-2.068,1.532-3.948,2.005
			c-2.107,0.53-4.377,0.135-6.67,0.904c-4.671,1.568-8.587,4.212-13.364,5.754c-2.956,0.954-5.178,2.549-7.736,3.552
			c-1.779,0.698-3.246,0.546-5.065,0.965c-2.319,0.535-3.358,1.958-5.416,2.781c-2.312,0.925-3.523,0.665-5.908,0.999
			c-5.568,0.779-12.592,3.433-17.58,5.714c-4.183,1.913-5.139,2.977-9.747,3.885c-2.291,0.451-4.4,0.603-6.646,1.322
			c-3.865,1.236-9.122,1.802-12.435,3.432c-3.822,1.881-5.322,6.032-8.423,8.504c-2.958,2.358-6.223,4.283-9.169,6.736
			c-7.484,6.233-15.851,12.132-23.776,17.869c-3.691,2.672-8.29,5.655-12.456,8.028c-7.571,4.311-19.775,9.864-28.756,6.803
			c-21.255-7.245-43.374-12.231-65.181-18.049c-27.869-7.436-53.122-5.022-76.167,11.316c-8.31,5.891-18.006,10.058-28.532,12.22
			c-15.983,3.283-31.159,8.351-45.533,15.134c-13.116,6.189-26.455,7.966-41.162,4.739c-13.531-2.969-27.707-5.004-41.503-3.412
			c-33.06,3.816-63.044-4.751-92.759-15.207c-18.62-6.552-37.422-10.84-57.561-5.627c-12.664,3.278-23.738,9.285-35.007,14.977
			c-1.835,0.927-3.394,1.795-5.596,0.308c-13.327-9.006-28.422-15.831-40.935-25.929c-10.124-8.17-23.382-15.524-37.807-13.009
			c-9.251,1.613-14.996,3.281-23.463-0.544c-3.843-1.736-7.697-3.531-11.174-5.79c-6.19-4.021-10.605-9.511-15.286-14.767
			c-16.037-18.006-32.195-37.625-54.487-50.26c-6.499-3.684-12.366-7.673-18.637-11.706c-5.817-3.741-11.792-8.332-18.327-9.97
			c-6.455-1.618-11.429-4.013-18.327-5.045c-6.49-0.97-12.331,0.104-18.657-1.587c-7.471-1.997-15.121-4.299-22.912-4.241
			c-6.17,0.046-12.344-0.079-18.513-0.01c-4.268,0.048-5.866-0.969-9.78-1.722c-3.309-0.636-7.342-0.159-10.726-0.161
			c-6.196-0.004-12.391,0.003-18.587,0c-8.671-0.004-13.114-0.408-20.804-3.78c-2.896-1.271-5.77-2.509-8.734-3.548
			c-3.437-1.205-5.383-3.434-8.609-4.102c-5.099-1.055-12.135,0.174-17.424,0.108c-7.824-0.098-18.783-2.831-25.288-6.634
			c-2.124-1.242-3.999-3.272-6.162-4.628c-4.898-3.069-11.438-4.413-15.503-8.018c-4.695-4.164-3.689-5.299-10.735-5.304
			c-4.03-0.003-8.061-0.005-12.091-0.007c-5.997-0.002-12.004,0.088-17.364-2.598c-5.416-2.714-9.331-7.773-13.677-11.643
			c-8.178-7.282-17.776-13.444-25.406-21.162c-9.639-9.751-17.205-20.586-27.884-29.645c-10.199-8.652-21.873-15.972-34.778-21.279
			c-1.328-0.546-2.668-1.071-4.018-1.575c-9.665-3.607-16.881-9.094-22.377-16.866c-8.227-11.634-19.219-21.099-31.453-29.728
			c-31.406-22.15-64.952-42.438-87.157-72.909c-1.491-2.046-3.456-3.905-5.521-5.55c-5.707-4.547-9.132-10.245-10.454-16.678
			c-4.811-23.407-18.022-43.631-33.177-62.668c-16.605-20.859-40.698-35.627-62.222-52.388c-6.207-4.833-15.033-6.981-23.361-6.156
			c-7.567,0.75-9.606-2.159-11.099-7.37c-11.784-41.111-50.317-54.437-91.136-62.923c-14.239-2.96-22.068-7.333-26.506-18.469
			c-2.708-6.794-6.042-13.4-9.118-20.082c-6.42-13.947-20.748-22.249-31.31-33.247c-10.96-11.414-24.149-18.497-41.362-19.318
			c-3.652-0.174-5.381-1.626-7.013-4.224C6.987,841.782,3.687,837.054,0,832.6V1700H2400z"/>
	</g>
</g>
</svg>
