<?xml version="1.0" encoding="utf-8"?>
<!-- Generator: Adobe Illustrator 27.5.0, SVG Export Plug-In . SVG Version: 6.00 Build 0)  -->
<svg version="1.1" id="background" xmlns="http://www.w3.org/2000/svg" xmlns:xlink="http://www.w3.org/1999/xlink" x="0px" y="0px"
	 viewBox="0 0 2200 1466" style="enable-background:new 0 0 2200 1466;" xml:space="preserve">
<g>
	<rect style="fill:#FFD997;" width="2200" height="1466"/>
	<circle style="fill:#FFAB31;" cx="1100" cy="511" r="341"/>
	<path style="fill:#F28D3B;" d="M2200,445.249v644.413H0V445.249c44.53-25.032,103.48-11.668,149.91,15.786
		c58.12,34.379,111.02,86.78,174.63,99.56c80.67,16.199,167.1-34.236,243.06,3.006c64.81,31.757,100.92,117.582,159.04,165.111
		c66.75,54.595,152.44,52.074,232.23,60.437c22.88,2.408,49.03,13.435,73.42,29.763c41.68,27.896,90.1,27.554,132.13,0.741
		c25.77-16.427,54.3-28.153,76.71-30.503c79.79-8.363,165.48-5.841,232.23-60.437c58.12-47.529,94.23-133.354,159.04-165.111
		c75.96-37.242,162.39,13.193,243.06-3.006c63.61-12.78,116.51-65.181,174.63-99.56C2096.52,433.581,2155.47,420.217,2200,445.249z"
		/>
	<path style="fill:#E26939;" d="M2200,686.496v423.544H0V686.496c44.53-22.427,103.48-10.454,149.91,14.143
		c58.12,30.8,111.02,77.746,174.63,89.196c80.67,14.513,167.1-30.672,243.06,2.693c64.81,28.451,100.92,105.342,159.04,147.923
		c66.75,48.912,152.44,46.653,232.23,54.145c22.88,2.157,49.03,12.037,73.42,26.664c41.68,24.992,90.1,24.686,132.13,0.664
		c25.77-14.717,54.3-25.222,76.71-27.328c79.79-7.492,165.48-5.233,232.23-54.145c58.12-42.581,94.23-119.472,159.04-147.923
		c75.96-33.365,162.39,11.82,243.06-2.693c63.61-11.449,116.51-58.396,174.63-89.196C2096.52,676.042,2155.47,664.069,2200,686.496z
		"/>
	<rect y="1110.04" style="fill:#FFA757;" width="2200" height="355.96"/>
	<path style="fill:#FFBF85;" d="M1374.962,1212.048H825.038c-7.644,0-13.84-6.196-13.84-13.84s6.196-13.84,13.84-13.84h549.924
		c7.644,0,13.84,6.196,13.84,13.84S1382.605,1212.048,1374.962,1212.048z"/>
	<path style="fill:#FFBF85;" d="M1506.988,1295.236H693.012c-9.299,0-16.838-7.539-16.838-16.838s7.539-16.838,16.838-16.838
		h813.977c9.299,0,16.838,7.539,16.838,16.838S1516.287,1295.236,1506.988,1295.236z"/>
	<path style="fill:#FFBF85;" d="M1422.99,1373.589H777.01c-8.284,0-15-6.716-15-15s6.716-15,15-15h645.98c8.284,0,15,6.716,15,15
		S1431.274,1373.589,1422.99,1373.589z"/>
	<path style="fill:#42312C;" d="M1625.861,224.47c-26.064-19.665-58.603-20.08-84.372-7.679c12.318-2.675,25.365-2.39,38.067,0.667
		c12.04,2.948,23.656,9.504,33.555,18.36c12.104,10.828,23.709,24.273,23.709,24.273s1.378-16.621,5.964-33.403
		c3.488-12.765,9.13-24.839,17.431-34.047c8.787-9.668,19.418-17.239,31.109-21.95
		C1663.04,174.921,1636.365,193.553,1625.861,224.47z"/>
	<path style="fill:#42312C;" d="M1795.289,338.737c26.064-19.665,58.603-20.08,84.372-7.679c-12.318-2.675-25.365-2.39-38.067,0.667
		c-12.04,2.948-23.656,9.504-33.555,18.36c-12.104,10.828-23.709,24.273-23.709,24.273s-1.378-16.621-5.964-33.403
		c-3.488-12.765-9.13-24.839-17.431-34.047c-8.787-9.668-19.418-17.239-31.109-21.95
		C1758.11,289.188,1784.786,307.819,1795.289,338.737z"/>
</g>
</svg>
